<svg version="1.1" xmlns="http://www.w3.org/2000/svg" xmlns:xlink="http://www.w3.org/1999/xlink" width="362.69983" height="296.75886" viewBox="0,0,362.69983,296.75886"><g transform="translate(-58.65124,-31.62057)"><g data-paper-data="{&quot;isPaintingLayer&quot;:true}" fill-rule="nonzero" stroke="#000000" stroke-width="2" stroke-linecap="butt" stroke-linejoin="miter" stroke-miterlimit="10" stroke-dasharray="" stroke-dashoffset="0" style="mix-blend-mode: normal"><path d="M67.84544,319.26134c0,0 -8.11808,-10.59607 -8.11808,-26.68819c0,-36.41084 0,-178.19373 0,-178.19373c0,0 104.49152,0 160.97368,0c5.45714,0 11.4679,0 17.89473,0c5.03025,0 10.31539,0 15.78948,0c67.96341,0 165.05129,0 165.05129,0c0,0 0,130.48064 0,168.59963c0,19.56169 -8.85609,32.59225 -8.85609,32.59225c0,0 -12.85166,11.80812 -33.55698,11.80812c-44.04114,0 -211.10482,0 -283.37914,0c-20.66294,0 -25.79889,-8.11809 -25.79889,-8.11809z" fill="#000000"/><path d="M199.32165,268.22067c0,0 -2.17628,-0.15344 -2.17628,-6.00305c0,-21.04136 0,-70.73088 0,-82.91621c0,-5.26888 2.39391,-5.46303 2.39391,-5.46303c0,0 2.52881,-1.96115 7.23146,1.05101c9.82925,6.29586 46.73086,29.93219 63.74476,40.82998c5.31638,3.40527 4.66483,5.78438 4.66483,5.78438c0,0 0.84046,1.73957 -4.22996,4.85473c-17.36567,10.66911 -56.83949,34.92099 -66.15985,40.64722c-3.85966,2.37129 -5.46886,1.21497 -5.46886,1.21497z" fill="#ffffff"/><g fill="#000000"><path d="M59.65124,86.2649v-53.64433h164.98204l-11.9382,53.64433z"/><path d="M251.53963,32.64925h48.07453l-11.9382,53.64433h-47.99857z"/><path d="M327.78963,32.64925h48.07452l-11.9382,53.64433h-47.99857z"/><path d="M403.88338,32.64925h16.34208l0.1233,53.64433h-28.32763z"/></g></g></g></svg>